<svg xmlns="http://www.w3.org/2000/svg" xmlns:xlink="http://www.w3.org/1999/xlink" viewBox="0 0 300 300"><defs><style>.cls-1,.cls-6{fill:#067af9;stroke-width:2.24px;}.cls-1{stroke:#fdfeff;stroke-miterlimit:10;}.cls-2{fill:#fff;}.cls-3{fill:#333;}.cls-4{fill:#f9fef8;}.cls-5{fill:#c6c6c4;}.cls-6{stroke:#fff;stroke-linecap:round;stroke-linejoin:round;}.cls-7{fill:url(#linear-gradient);}.cls-8{fill:#d5d6d4;}.cls-9{fill:#ffb003;}</style><linearGradient id="linear-gradient" x1="169.24" y1="158.23" x2="238.38" y2="158.23" gradientUnits="userSpaceOnUse"><stop offset="0" stop-color="#fff"/><stop offset="1" stop-color="#a7a9a3"/></linearGradient></defs><g id="OBJECTS"><path class="cls-1" d="M270.43,123c-2.62-17.52-9.88-61.48-17.12-64.91-7.57-3.59-29.39,20.71-36.33,28.78a86.77,86.77,0,0,0-16.57-1.6H90a86.7,86.7,0,0,0-16.4,1.57c-7-8.11-28.73-32.34-36.3-28.75-7.18,3.4-14.38,46.72-17.06,64.49A68.8,68.8,0,0,0,9.58,159.18c0,40.65,36.18,73.92,80.41,73.92H200.41c44.23,0,80.42-33.27,80.42-73.92A68.72,68.72,0,0,0,270.43,123ZM200.7,218.51a57.91,57.91,0,0,1-55.5-41.42,57.9,57.9,0,1,1,0-32.93,57.89,57.89,0,1,1,55.5,74.35Z"/><path class="cls-2" d="M200.7,218.51a57.91,57.91,0,0,1-55.5-41.42,57.9,57.9,0,1,1,0-32.93,57.89,57.89,0,1,1,55.5,74.35Z"/><path class="cls-2" d="M200.7,218.51a57.91,57.91,0,0,1-55.5-41.42,57.9,57.9,0,1,1,0-32.93,57.89,57.89,0,1,1,55.5,74.35Z"/><path class="cls-3" d="M215.55,160.62a14.86,14.86,0,1,1-14.85-14.85A14.85,14.85,0,0,1,215.55,160.62Z"/><path class="cls-3" d="M101.48,160.62a14.86,14.86,0,1,1-14.85-14.85A14.85,14.85,0,0,1,101.48,160.62Z"/><path class="cls-4" d="M117.62,160a31,31,0,0,1-62,0,31.56,31.56,0,0,1,.17-3.25A31,31,0,0,1,117.62,160Z"/><path class="cls-5" d="M106,160a19.41,19.41,0,0,1-38.82,0,19.61,19.61,0,0,1,.11-2,18.72,18.72,0,0,1,.58-3.09c.09-.34.19-.68.3-1a9.14,9.14,0,1,0,12.29-12.29A19.42,19.42,0,0,1,106,160Z"/><path class="cls-6" d="M287.88,227.46l-25.05-25.05-14.08-14.09-6.43-6.43a45.19,45.19,0,0,0-.71-48.44L248,127,262,113s0,0-.05,0c-.15-.21-.32-.43-.49-.64l-.07-.07a70.54,70.54,0,0,0-4.73-5.38s0,0,0,0l-.08-.06a73.66,73.66,0,0,0-95.78-8.43,0,0,0,0,0,0,0c-.43.3-.88.62-1.31.95s-.86.66-1.29,1c-.84.66-1.68,1.35-2.49,2.08q-.61.51-1.23,1c-.39.37-.8.74-1.18,1.12-1.21,1.12-2.37,2.26-3.49,3.49-.34.36-.68.75-1,1.14a0,0,0,0,0,0,0c-.34.36-.67.75-1,1.16a64.94,64.94,0,0,0-4.34,5.57l-.71,1c-.3.47-.63.92-.93,1.4s-.75,1.18-1.09,1.78c-.22.32-.43.67-.63,1-.66,1.12-1.29,2.28-1.89,3.44-.26.54-.54,1.06-.8,1.6s-.51,1.07-.75,1.63l-.71,1.59-.38,1c-.16.36-.31.71-.43,1.07-.37,1-.71,1.9-1.06,2.86-.15.5-.32,1-.47,1.44s-.24.78-.37,1.17a4.57,4.57,0,0,1-.15.55c-.13.41-.23.82-.34,1.23-.17.65-.37,1.29-.52,2-.06.3-.15.6-.21.9-.11.49-.22,1-.32,1.46s-.16.8-.24,1.21-.13.64-.2,1c-.08.55-.19,1.11-.25,1.69s-.2,1.23-.28,1.85-.15,1.23-.22,1.85c0,.45-.08,1-.11,1.42l.69,17.89c.15,1,.35,2.09.54,3.1.09.41.17.79.26,1.18a72.37,72.37,0,0,0,4.21,13c.86,2,1.83,4,2.88,6l1,1.83c.58,1,1.16,1.91,1.74,2.86a0,0,0,0,1,0,0c.47.73,1,1.48,1.48,2.19s1,1.46,1.53,2.15l0,0c1.08,1.42,2.17,2.8,3.33,4.13s2.37,2.65,3.62,3.89a74.6,74.6,0,0,0,15.43,11.81c.86.52,1.75,1,2.63,1.44a72.26,72.26,0,0,0,10.41,4.45c.38.13.77.26,1.16.37,1.44.47,2.92.9,4.4,1.27,1.08.27,2.13.51,3.23.73a73.31,73.31,0,0,0,14.84,1.5c.56,0,1.11,0,1.67,0s.84,0,1.25,0a5.06,5.06,0,0,0,.56,0c.3,0,.58,0,.86,0l1.33-.08c.63-.05,1.25-.11,1.87-.18.43,0,.89-.08,1.32-.15a9.3,9.3,0,0,0,1-.12c1.09-.16,2.19-.31,3.27-.5.58-.11,1.14-.21,1.69-.34s1.19-.24,1.79-.39,1.44-.32,2.13-.52c.39-.1.75-.19,1.12-.3s.68-.19,1-.3.94-.28,1.42-.43.86-.28,1.31-.43c1.1-.36,2.17-.77,3.27-1.18.58-.24,1.18-.47,1.76-.73s1.12-.48,1.66-.73,1.07-.5,1.61-.76,1.07-.51,1.61-.79l1.57-.84,1.57-.86.11-.07,1.42-.83c.49-.33,1-.63,1.5-1l1.49-1c1.95-1.33,3.85-2.75,5.67-4.25a.6.6,0,0,0,.13-.09l24.75,24.75a8.7,8.7,0,0,0,12.3-12.3Zm-52.74-25.14c-.61.43-1.19.84-1.81,1.23s-1.23.79-1.83,1.16-1.27.73-1.89,1.07-1.29.69-1.94,1a49.52,49.52,0,0,1-5.56,2.35c-.48.17-.93.34-1.4.47a41.94,41.94,0,0,1-4.45,1.27c-.52.11-1,.24-1.53.34s-1,.2-1.51.28l-1.39.24c-.65.09-1.27.17-1.92.24-.38,0-.73.08-1.11.1a45.94,45.94,0,0,1-5,.24c-.46,0-.93,0-1.4,0s-1,0-1.48-.06-.82-.05-1.23-.07h-.06l-.41,0c-.33,0-.65,0-.95-.09s-.9-.08-1.35-.15-.91-.11-1.36-.19c-.88-.13-1.78-.28-2.67-.48s-1.74-.38-2.6-.6l-1.07-.3a54.77,54.77,0,0,1-39.48-51.15c0-.3,0-.61,0-.93,0-.47,0-.94,0-1.4s0-.9,0-1.35c0-.28,0-.56,0-.84s0-.58.07-.86a7.81,7.81,0,0,1,.09-.86l0-.36a54.36,54.36,0,0,1,1.63-8.63,54.09,54.09,0,0,1,84.18-29.31L229.46,121h0a45.24,45.24,0,0,0-69.24,25.27,45.76,45.76,0,0,0-1.33,7.2,41.5,41.5,0,0,0-.26,4.75,45.2,45.2,0,0,0,71.9,36.45h0l6.35,6.34Q236,201.71,235.14,202.32Z"/><path class="cls-7" d="M238.38,158.24a34.57,34.57,0,0,1-69.14,0,36,36,0,0,1,.18-3.63,34.58,34.58,0,0,1,69,3.63Z"/><path class="cls-8" d="M230.75,162.76a35.61,35.61,0,0,1-11.91,26.61,34.58,34.58,0,0,1-49.6-31.13,36,36,0,0,1,.18-3.63,34.57,34.57,0,0,1,17.83-26.73A35,35,0,0,1,195,127,35.74,35.74,0,0,1,230.75,162.76Z"/><ellipse class="cls-2" cx="214.66" cy="171.96" rx="3.23" ry="2.84"/><ellipse class="cls-2" cx="205.48" cy="182.12" rx="8.02" ry="4.47"/><path class="cls-9" d="M145,173.75H127.93s.39,20.63,17.09,31.93c16.7-11.3,17.09-31.93,17.09-31.93Z"/></g></svg>